<svg width="319" height="73" viewBox="0 0 319 73" fill="none" xmlns="http://www.w3.org/2000/svg">
  <path d="M50 5C50 2.23858 52.2386 0 55 0H91C93.7614 0 96 2.23858 96 5V26C96 28.7614 93.7614 31 91 31H55C52.2386 31 50 28.7614 50 26V5Z" fill="#2A2E37"/>
  <path d="M60.8329 21H62.3841L64.5268 13.3736H64.6064L66.7491 21H68.2953L71.1241 10.8182H69.5034L67.5247 18.7081H67.4302L65.367 10.8182H63.7662L61.7029 18.7031H61.6085L59.6248 10.8182H58.0091L60.8329 21Z" fill="white"/>
  <path opacity="0.5" fill-rule="evenodd" clip-rule="evenodd" d="M86.6349 12.6101L81.0422 11.6713C80.699 11.6137 80.2053 11.7492 79.9396 11.9739L75.6092 15.6356C75.3435 15.8603 75.4063 16.0891 75.7495 16.1467C76.0927 16.2043 76.5863 16.0689 76.8521 15.8442L80.0208 13.1647L81.7585 19.4972L83.3177 19.0693L81.5801 12.7369L85.6726 13.4238C86.0158 13.4814 86.5095 13.346 86.7752 13.1213C87.0409 12.8966 86.9781 12.6677 86.6349 12.6101Z" fill="white"/>
  <rect x="50" y="42" width="46" height="31" rx="5" fill="#2A2E37"/>
  <path d="M66.6504 55.4929H68.1319C68.0872 53.8622 66.6454 52.679 64.5772 52.679C62.5339 52.679 60.9679 53.8473 60.9679 55.6023C60.9679 57.0192 61.9821 57.8494 63.6177 58.2919L64.8208 58.62C65.9096 58.9084 66.7498 59.2663 66.7498 60.1712C66.7498 61.1655 65.8002 61.8217 64.4927 61.8217C63.3095 61.8217 62.3251 61.2947 62.2356 60.1861H60.6944C60.7939 62.0305 62.2207 63.169 64.5027 63.169C66.894 63.169 68.2711 61.9112 68.2711 60.1861C68.2711 58.3516 66.6355 57.6406 65.3429 57.3224L64.3485 57.0639C63.5531 56.8601 62.4941 56.4872 62.4991 55.5128C62.4991 54.6477 63.2896 54.0064 64.5424 54.0064C65.7108 54.0064 66.541 54.5533 66.6504 55.4929Z" fill="white"/>
  <path opacity="0.5" fill-rule="evenodd" clip-rule="evenodd" d="M85.3743 57.9603L80.6961 61.1657C80.409 61.3624 79.9042 61.4473 79.5686 61.3553L74.0993 59.8562C73.7637 59.7643 73.7244 59.5302 74.0114 59.3335C74.2985 59.1368 74.8033 59.0519 75.1389 59.1439L79.1411 60.2409L78.0522 53.7653L79.6467 53.4972L80.7356 59.9728L84.1589 57.6272C84.446 57.4305 84.9508 57.3456 85.2864 57.4376C85.622 57.5296 85.6614 57.7636 85.3743 57.9603Z" fill="white"/>
  <rect x="100" y="42" width="46" height="31" rx="5" fill="#2A2E37"/>
  <path d="M114.129 63C117.231 63 119.026 61.076 119.026 57.8942C119.026 54.7273 117.231 52.8182 114.234 52.8182H110.833V63H114.129ZM112.369 61.6577V54.1605H114.139C116.366 54.1605 117.515 55.4929 117.515 57.8942C117.515 60.3054 116.366 61.6577 114.045 61.6577H112.369Z" fill="white"/>
  <path opacity="0.5" fill-rule="evenodd" clip-rule="evenodd" d="M132.288 53.2536L136.11 57.0754C136.344 57.3099 136.344 57.6901 136.11 57.9246L132.288 61.7464C132.054 61.9809 131.673 61.9809 131.439 61.7464C131.204 61.5119 131.204 61.1316 131.439 60.8971L134.235 58.1005H123.714V56.8995H134.235L131.439 54.1029C131.204 53.8684 131.204 53.4881 131.439 53.2536C131.673 53.0191 132.054 53.0191 132.288 53.2536Z" fill="white"/>
  <rect x="165" y="42" width="46" height="31" rx="5" fill="#2A2E37"/>
  <path d="M186.153 56.1293C185.805 53.9517 184.1 52.679 181.947 52.679C179.312 52.679 177.368 54.6527 177.368 57.9091C177.368 61.1655 179.302 63.1392 181.947 63.1392C184.184 63.1392 185.82 61.7372 186.153 59.7237L184.602 59.7188C184.338 61.0213 183.245 61.7372 181.957 61.7372C180.212 61.7372 178.894 60.3999 178.894 57.9091C178.894 55.4382 180.207 54.081 181.962 54.081C183.259 54.081 184.348 54.8118 184.602 56.1293H186.153Z" fill="white"/>
  <path opacity="0.5" fill-rule="evenodd" clip-rule="evenodd" d="M190.754 59.7881L194.575 63.6098C194.81 63.8443 195.19 63.8443 195.425 63.6098L199.246 59.7881C199.481 59.5536 199.481 59.1733 199.246 58.9388C199.012 58.7043 198.632 58.7043 198.397 58.9388L195.6 61.7354L195.6 51.2143L194.399 51.2143L194.399 61.7354L191.603 58.9388C191.368 58.7043 190.988 58.7043 190.754 58.9388C190.519 59.1733 190.519 59.5536 190.754 59.7881Z" fill="white"/>
  <rect x="139.5" width="46" height="31" rx="5" fill="#2A2E37"/>
  <path d="M153.196 21H159.639V19.6776H154.732V16.5604H159.247V15.2429H154.732V12.1406H159.58V10.8182H153.196V21Z" fill="white"/>
  <path opacity="0.5" fill-rule="evenodd" clip-rule="evenodd" d="M164.254 13.2119L168.075 9.39018C168.31 9.15566 168.69 9.15566 168.925 9.39018L172.746 13.2119C172.981 13.4464 172.981 13.8267 172.746 14.0612C172.512 14.2957 172.132 14.2957 171.897 14.0612L169.1 11.2646L169.1 21.7857L167.899 21.7857L167.899 11.2646L165.103 14.0612C164.868 14.2957 164.488 14.2957 164.254 14.0612C164.019 13.8267 164.019 13.4464 164.254 13.2119Z" fill="white"/>
  <rect y="42" width="46" height="31" rx="5" fill="#2A2E37"/>
  <path opacity="0.5" fill-rule="evenodd" clip-rule="evenodd" d="M14.2119 53.2536L10.3901 57.0754C10.1556 57.3099 10.1556 57.6901 10.3901 57.9246L14.2119 61.7464C14.4464 61.9809 14.8266 61.9809 15.0611 61.7464C15.2957 61.5119 15.2957 61.1316 15.0611 60.8971L12.2646 58.1005H22.7856V56.8995H12.2646L15.0611 54.1029C15.2957 53.8684 15.2957 53.4881 15.0611 53.2536C14.8266 53.0191 14.4464 53.0191 14.2119 53.2536Z" fill="white"/>
  <path d="M27.7643 63L28.699 60.3054H32.6763L33.606 63H35.2366L31.5726 52.8182H29.7977L26.1337 63H27.7643ZM29.1464 59.0128L30.6479 54.6676H30.7274L32.2288 59.0128H29.1464Z" fill="white"/>
  <rect x="233.688" y="42" width="40.3133" height="30.9641" rx="5" fill="#2A2E37"/>
  <rect x="278.002" y="42" width="40.3133" height="30.9641" rx="5" fill="#2A2E37"/>
  <path d="M252.375 50.1793L254.432 48.1901C254.432 48.1901 254.432 48.19 254.432 48.19C254.611 48.0166 254.611 47.6964 254.432 47.5241L254.432 47.524L252.375 45.5347L252.375 45.5347C252.312 45.4734 252.243 45.4706 252.183 45.5005C252.12 45.5322 252.06 45.6075 252.06 45.7256V46.732V46.982H251.81C249.12 46.982 247.305 47.4012 246.17 48.0495C245.05 48.6896 244.595 49.5491 244.595 50.482C244.595 51.3432 244.906 51.8415 245.198 52.1253C245.286 52.2104 245.373 52.2777 245.452 52.3303V52.09C245.415 52.0504 245.37 51.9974 245.325 51.9312C245.219 51.7736 245.113 51.5384 245.113 51.232C245.113 50.5574 245.695 49.933 246.752 49.4892C247.827 49.0381 249.475 48.732 251.81 48.732H252.06V48.982V49.9884C252.06 50.107 252.12 50.1821 252.183 50.2137C252.243 50.2435 252.312 50.2408 252.375 50.1793L252.375 50.1793ZM262.238 52.09V52.3303C262.318 52.2777 262.405 52.2104 262.492 52.1253C262.784 51.8415 263.095 51.3432 263.095 50.482C263.095 49.5491 262.641 48.6896 261.52 48.0495C260.421 47.4215 258.683 47.0085 256.131 46.9832V48.7332C258.333 48.7543 259.902 49.0543 260.938 49.4892C261.996 49.933 262.577 50.5574 262.577 51.232C262.577 51.5384 262.471 51.7736 262.365 51.9312C262.321 51.9974 262.276 52.0504 262.238 52.09Z" stroke="#A9A9A9" stroke-width="0.5"/>
  <path d="M253.845 51.6964C255.417 51.6964 256.695 53.0424 256.695 54.6964C256.695 56.3504 255.417 57.6964 253.845 57.6964C252.274 57.6964 250.995 56.3504 250.995 54.6964C250.995 53.0424 252.274 51.6964 253.845 51.6964ZM253.845 51.1964C252.009 51.1964 250.52 52.7634 250.52 54.6964C250.52 56.6294 252.009 58.1964 253.845 58.1964C255.682 58.1964 257.17 56.6294 257.17 54.6964C257.17 52.7634 255.682 51.1964 253.845 51.1964Z" fill="#858585"/>
  <path fill-rule="evenodd" clip-rule="evenodd" d="M252.658 55.7287V62.4414H252.659V64.2894L251.02 62.5654C250.781 62.3138 250.463 62.1747 250.125 62.1747C249.786 62.1747 249.468 62.3138 249.229 62.5654C248.989 62.8171 248.858 63.1518 248.858 63.5083C248.858 63.8649 248.989 64.1996 249.229 64.4512L253.283 68.7194L253.286 68.7154L253.442 68.8816C253.957 69.4298 254.643 69.732 255.374 69.732H258.782C260.063 69.732 261.105 68.6349 261.105 67.287V61.2856H261.105V61.0633C261.105 60.4503 260.631 59.9519 260.049 59.9519C259.467 59.9519 258.993 60.4503 258.993 61.0633V61.2856H258.993V60.6187C258.993 60.0057 258.52 59.5074 257.938 59.5074C257.356 59.5074 256.882 60.0057 256.882 60.6187V61.2856H256.882V60.6187C256.882 60.0057 256.408 59.5074 255.826 59.5074C255.244 59.5074 254.77 60.0057 254.77 60.6187V61.2856H254.77V55.7287C254.77 55.1157 254.296 54.6173 253.714 54.6173C253.132 54.6173 252.658 55.1157 252.658 55.7287Z" fill="white"/>
  <path d="M295.5 48.8375C291.736 48.8375 288.676 51.8626 288.676 55.5907V57.4498C288.67 57.4819 288.67 57.515 288.676 57.5472V59.4093C288.676 63.1374 291.736 66.1625 295.5 66.1625C299.265 66.1625 302.325 63.1371 302.325 59.4088V57.5369C302.328 57.5124 302.328 57.4876 302.325 57.4631V55.5907C302.325 51.8626 299.265 48.8375 295.5 48.8375ZM295.5 49.3625C298.984 49.3625 301.8 52.1495 301.8 55.5907V57.2375H289.201V55.5907C289.201 52.1494 292.017 49.3625 295.5 49.3625ZM295.496 50.4089C295.428 50.4101 295.363 50.4375 295.315 50.4853C294.975 50.741 294.633 50.9966 294.293 51.2523C294.237 51.294 294.2 51.3562 294.19 51.4252C294.18 51.4941 294.198 51.5641 294.24 51.6199C294.281 51.6756 294.344 51.7125 294.413 51.7224C294.482 51.7323 294.552 51.7145 294.607 51.6727C294.817 51.5152 295.027 51.3576 295.237 51.2V55.4C295.027 55.2424 294.817 55.0848 294.607 54.9273C294.558 54.8896 294.498 54.8704 294.436 54.873C294.382 54.8752 294.329 54.8943 294.286 54.9277C294.243 54.9611 294.211 55.0071 294.195 55.0593C294.18 55.1115 294.181 55.1673 294.198 55.219C294.215 55.2707 294.248 55.3157 294.293 55.3477C294.633 55.6031 294.973 55.8584 295.314 56.1137C295.363 56.1629 295.43 56.191 295.5 56.191C295.57 56.191 295.636 56.1634 295.686 56.1142C296.026 55.8588 296.367 55.6032 296.707 55.3477C296.763 55.306 296.8 55.2438 296.81 55.1748C296.82 55.1059 296.802 55.0359 296.76 54.9801C296.718 54.9244 296.656 54.8875 296.587 54.8776C296.518 54.8677 296.448 54.8856 296.393 54.9273C296.183 55.0848 295.972 55.2424 295.762 55.4V51.2C295.972 51.3576 296.183 51.5152 296.393 51.6727C296.448 51.7145 296.518 51.7323 296.587 51.7224C296.656 51.7125 296.718 51.6756 296.76 51.6199C296.802 51.5641 296.82 51.4941 296.81 51.4252C296.8 51.3562 296.763 51.294 296.707 51.2523C296.367 50.9969 296.026 50.7416 295.686 50.4863C295.661 50.4615 295.631 50.4413 295.598 50.4281C295.566 50.4149 295.531 50.4084 295.496 50.4089ZM289.201 57.7625H301.8V59.4088C301.8 62.8503 298.984 65.6375 295.5 65.6375C292.016 65.6375 289.201 62.8506 289.201 59.4093V57.7625Z" fill="white"/>
  <path d="M307.5 59.0267C304.458 59.0267 302 61.2614 302 64.0267C302 65.1189 302.394 66.1622 303.046 66.9825L303.79 66.4877C301.797 63.9793 303.525 60.1947 307.042 59.8861H307.958C311.386 60.1869 313.237 63.936 311.21 66.4877L311.954 66.9825C312.606 66.1622 313 65.1189 313 64.0267C313 61.2614 310.542 59.0267 307.5 59.0267ZM310.107 61.6569L307.6 63.2064C307.566 63.2032 307.534 63.1934 307.5 63.1934C306.993 63.1934 306.583 63.5661 306.583 64.0267C306.583 64.4874 306.993 64.8601 307.5 64.8601C308.007 64.8601 308.417 64.4874 308.417 64.0267C308.417 63.9958 308.406 63.9665 308.402 63.9356L310.107 61.6569Z" fill="#95979B"/>
</svg>
